<?xml version="1.0" encoding="UTF-8" standalone="no"?>
<!-- Created with Inkscape (http://www.inkscape.org/) -->

<svg
   xmlns:dc="http://purl.org/dc/elements/1.1/"
   xmlns:cc="http://creativecommons.org/ns#"
   xmlns:rdf="http://www.w3.org/1999/02/22-rdf-syntax-ns#"
   xmlns:svg="http://www.w3.org/2000/svg"
   xmlns="http://www.w3.org/2000/svg"
   xmlns:sodipodi="http://sodipodi.sourceforge.net/DTD/sodipodi-0.dtd"
   xmlns:inkscape="http://www.inkscape.org/namespaces/inkscape"
   width="1600"
   height="400"
   viewBox="0 0 423.33333 105.83334"
   version="1.1"
   id="svg8"
   inkscape:version="0.92.1 r15371"
   sodipodi:docname="airsonic_dark.svg"
   inkscape:export-filename="/home/jo/git/libresonic/assets/ih.png"
   inkscape:export-xdpi="96"
   inkscape:export-ydpi="96">
  <defs
     id="defs2" />
  <sodipodi:namedview
     id="base"
     pagecolor="#ffffff"
     bordercolor="#666666"
     borderopacity="1.0"
     inkscape:pageopacity="0"
     inkscape:pageshadow="2"
     inkscape:zoom="0.4875"
     inkscape:cx="800"
     inkscape:cy="200"
     inkscape:document-units="mm"
     inkscape:current-layer="layer1"
     showgrid="false"
     units="px"
     scale-x="1.5"
     inkscape:window-width="1366"
     inkscape:window-height="704"
     inkscape:window-x="0"
     inkscape:window-y="27"
     inkscape:window-maximized="1"
     showguides="true"
     inkscape:guide-bbox="true" />
  <metadata
     id="metadata5">
    <rdf:RDF>
      <cc:Work
         rdf:about="">
        <dc:format>image/svg+xml</dc:format>
        <dc:type
           rdf:resource="http://purl.org/dc/dcmitype/StillImage" />
        <dc:title></dc:title>
      </cc:Work>
    </rdf:RDF>
  </metadata>
  <g
     inkscape:label="Calque 1"
     inkscape:groupmode="layer"
     id="layer1"
     transform="translate(0,-191.16667)">
    <text
       xml:space="preserve"
       style="font-style:normal;font-weight:normal;font-size:10.56115532px;line-height:125%;font-family:Sans;letter-spacing:0px;word-spacing:0px;fill:#000000;fill-opacity:1;stroke:none;stroke-width:0.26402888px;stroke-linecap:butt;stroke-linejoin:miter;stroke-opacity:1"
       x="166.10963"
       y="270.45255"
       id="text3959"
       transform="scale(1.0020999,0.9979045)"><tspan
         sodipodi:role="line"
         id="tspan3957"
         x="166.10963"
         y="270.45255"
         style="font-style:normal;font-variant:normal;font-weight:600;font-stretch:normal;font-size:77.4484787px;font-family:Cabin;-inkscape-font-specification:'Cabin, Semi-Bold';font-variant-ligatures:normal;font-variant-caps:normal;font-variant-numeric:normal;font-feature-settings:normal;text-align:start;writing-mode:lr-tb;text-anchor:start;fill:#2f7bd9;fill-opacity:1;stroke-width:0.26402888px">air<tspan
   style="fill:#2d2d2d;fill-opacity:1"
   id="tspan4770">sonic</tspan></tspan></text>
    <text
       xml:space="preserve"
       style="font-style:normal;font-variant:normal;font-weight:bold;font-stretch:normal;font-size:16.93333244px;line-height:1.25;font-family:Cantarell;-inkscape-font-specification:'Cantarell Bold';letter-spacing:0px;word-spacing:0px;fill:#000000;fill-opacity:1;stroke:none;stroke-width:0.26458332"
       x="291.94284"
       y="196.71788"
       id="text4499"><tspan
         sodipodi:role="line"
         id="tspan4497"
         x="291.94284"
         y="211.19588"
         style="font-style:normal;font-variant:normal;font-weight:bold;font-stretch:normal;font-size:16.93333244px;font-family:Cantarell;-inkscape-font-specification:'Cantarell Bold';stroke-width:0.26458332" /></text>
    <g
       style="fill:#2f7bd9;fill-opacity:1"
       id="g4630"
       transform="matrix(1.5943416,0,0,1.5943416,-8.950575,-118.2395)">
      <g
         id="g4492"
         transform="translate(-2.3582099,1.8503363)"
         style="fill:#2f7bd9;fill-opacity:1;stroke:none">
        <path
           style="opacity:1;fill:#2f7bd9;fill-opacity:1;stroke:none;stroke-width:5.29166651;stroke-miterlimit:4;stroke-dasharray:none;stroke-opacity:1"
           d="M 50.104111,229.26665 A 13.122505,13.122505 0 0 1 36.981606,242.38915 13.122505,13.122505 0 0 1 23.8591,229.26665 13.122505,13.122505 0 0 1 36.981606,216.14414 13.122505,13.122505 0 0 1 50.104111,229.26665 Z"
           id="path4485"
           inkscape:connector-curvature="0" />
        <path
           style="opacity:1;fill:#2f7bd9;fill-opacity:1;stroke:none;stroke-width:5.29166651;stroke-miterlimit:4;stroke-dasharray:none;stroke-opacity:1"
           d="m 92.520287,229.26665 a 13.122505,13.122505 0 0 1 -13.122506,13.1225 13.122505,13.122505 0 0 1 -13.122505,-13.1225 13.122505,13.122505 0 0 1 13.122505,-13.12251 13.122505,13.122505 0 0 1 13.122506,13.12251 z"
           id="circle4491"
           inkscape:connector-curvature="0" />
        <path
           style="opacity:1;fill:#2f7bd9;fill-opacity:1;stroke:none;stroke-width:5.29166651;stroke-miterlimit:4;stroke-dasharray:none;stroke-opacity:1"
           d="M 76.084015,224.4841 A 17.894325,17.894325 0 0 1 58.18969,242.37843 17.894325,17.894325 0 0 1 40.295364,224.4841 17.894325,17.894325 0 0 1 58.18969,206.58978 17.894325,17.894325 0 0 1 76.084015,224.4841 Z"
           id="circle4496"
           inkscape:connector-curvature="0" />
        <path
           style="opacity:1;fill:#2f7bd9;fill-opacity:1;stroke:none;stroke-width:5.29166651;stroke-miterlimit:4;stroke-dasharray:none;stroke-opacity:1"
           d="m 36.538471,230.01532 h 42.85931 v 12.37383 h -42.85931 z"
           id="rect4516"
           inkscape:connector-curvature="0" />
      </g>
      <g
         transform="matrix(-0.22313583,0.17439215,0.16657016,0.23361409,-15.240728,168.2986)"
         id="g71"
         inkscape:label="Calque 1"
         style="fill:#2f7bd9;fill-opacity:1">
        <g
           transform="translate(18.174328,8.0180859)"
           id="g53"
           style="font-style:normal;font-weight:normal;font-size:10.58333302px;line-height:1.25;font-family:sans-serif;letter-spacing:0px;word-spacing:0px;fill:#2f7bd9;fill-opacity:1;stroke:none;stroke-width:0.26458332"
           aria-label=")">
          <text
             id="text51"
             y="209.79588"
             x="13.76466"
             style="font-style:normal;font-weight:normal;font-size:10.58333302px;line-height:1.25;font-family:sans-serif;letter-spacing:0px;word-spacing:0px;fill:#2f7bd9;fill-opacity:1;stroke:none;stroke-width:0.07000434"
             xml:space="preserve"><tspan
               style="fill:#2f7bd9;fill-opacity:1;stroke-width:0.07000434"
               y="219.15965"
               x="13.76466"
               id="tspan49"
               sodipodi:role="line" /></text>
        </g>
        <g
           transform="translate(-0.11103568,-7.73333)"
           id="g67"
           style="font-style:normal;font-variant:normal;font-weight:normal;font-stretch:normal;font-size:105.83333588px;line-height:1.25;font-family:Cabin;-inkscape-font-specification:'Cabin, Normal';font-variant-ligatures:normal;font-variant-caps:normal;font-variant-numeric:normal;font-feature-settings:normal;text-align:start;letter-spacing:0px;word-spacing:0px;writing-mode:lr-tb;text-anchor:start;fill:#2f7bd9;fill-opacity:1;stroke:none;stroke-width:0.26458332"
           aria-label=")">
          <g
             id="g59"
             transform="matrix(0.77162401,-0.54306755,0.54306755,0.77162401,-130.37432,96.156433)"
             style="fill:#2f7bd9;fill-opacity:1">
            <path
               sodipodi:nodetypes="zszzszz"
               inkscape:connector-curvature="0"
               id="path55"
               style="font-style:normal;font-variant:normal;font-weight:normal;font-stretch:normal;font-size:105.83333588px;font-family:Cabin;-inkscape-font-specification:'Cabin, Normal';font-variant-ligatures:normal;font-variant-caps:normal;font-variant-numeric:normal;font-feature-settings:normal;text-align:start;writing-mode:lr-tb;text-anchor:start;fill:#2f7bd9;fill-opacity:1;stroke-width:0.23892711"
               d="m 39.492087,275.23244 c 3.757084,-4.66039 14.393334,-20.0224 14.393334,-38.23246 0,-18.21002 -10.63625,-33.57205 -14.393334,-38.23244 -3.757084,-4.66038 -12.012083,-4.833 -8.360833,0 3.65125,4.833 15.134167,21.74849 15.134167,38.23244 0,16.48398 -11.482917,33.39947 -15.134167,38.23246 -3.65125,4.83299 4.603749,4.66039 8.360833,0 z" />
            <path
               d="m 63.544348,283.96301 c 4.054107,-5.72461 15.531226,-24.59463 15.531226,-46.96302 0,-22.36838 -11.477119,-41.23841 -15.531226,-46.96302 -4.054107,-5.72461 -12.961719,-5.93664 -9.021813,0 3.939906,5.93664 16.330627,26.71485 16.330627,46.96302 0,20.24817 -12.390721,41.02639 -16.330627,46.96302 -3.939906,5.93662 4.967706,5.72461 9.021813,0 z"
               style="font-style:normal;font-variant:normal;font-weight:normal;font-stretch:normal;font-size:105.83333588px;font-family:Cabin;-inkscape-font-specification:'Cabin, Normal';font-variant-ligatures:normal;font-variant-caps:normal;font-variant-numeric:normal;font-feature-settings:normal;text-align:start;writing-mode:lr-tb;text-anchor:start;fill:#2f7bd9;fill-opacity:1;stroke-width:0.27507398"
               id="path57"
               inkscape:connector-curvature="0"
               sodipodi:nodetypes="zszzszz" />
          </g>
          <g
             transform="matrix(0.77162401,-0.54306755,0.54306755,0.77162401,-130.37432,96.156433)"
             id="g65"
             style="fill:#2f7bd9;fill-opacity:1">
            <path
               d="m 39.492087,275.23244 c 3.757084,-4.66039 14.393334,-20.0224 14.393334,-38.23246 0,-18.21002 -10.63625,-33.57205 -14.393334,-38.23244 -3.757084,-4.66038 -12.012083,-4.833 -8.360833,0 3.65125,4.833 15.134167,21.74849 15.134167,38.23244 0,16.48398 -11.482917,33.39947 -15.134167,38.23246 -3.65125,4.83299 4.603749,4.66039 8.360833,0 z"
               style="font-style:normal;font-variant:normal;font-weight:normal;font-stretch:normal;font-size:105.83333588px;font-family:Cabin;-inkscape-font-specification:'Cabin, Normal';font-variant-ligatures:normal;font-variant-caps:normal;font-variant-numeric:normal;font-feature-settings:normal;text-align:start;writing-mode:lr-tb;text-anchor:start;fill:#2f7bd9;fill-opacity:1;stroke-width:0.23892711"
               id="path61"
               inkscape:connector-curvature="0"
               sodipodi:nodetypes="zszzszz" />
            <path
               sodipodi:nodetypes="zszzszz"
               inkscape:connector-curvature="0"
               id="path63"
               style="font-style:normal;font-variant:normal;font-weight:normal;font-stretch:normal;font-size:105.83333588px;font-family:Cabin;-inkscape-font-specification:'Cabin, Normal';font-variant-ligatures:normal;font-variant-caps:normal;font-variant-numeric:normal;font-feature-settings:normal;text-align:start;writing-mode:lr-tb;text-anchor:start;fill:#2f7bd9;fill-opacity:1;stroke-width:0.27507398"
               d="m 63.544348,283.96301 c 4.054107,-5.72461 15.531226,-24.59463 15.531226,-46.96302 0,-22.36838 -11.477119,-41.23841 -15.531226,-46.96302 -4.054107,-5.72461 -12.961719,-5.93664 -9.021813,0 3.939906,5.93664 16.330627,26.71485 16.330627,46.96302 0,20.24817 -12.390721,41.02639 -16.330627,46.96302 -3.939906,5.93662 4.967706,5.72461 9.021813,0 z" />
          </g>
        </g>
        <g
           aria-label=")"
           style="font-style:normal;font-variant:normal;font-weight:normal;font-stretch:normal;font-size:105.83333588px;line-height:1.25;font-family:Cabin;-inkscape-font-specification:'Cabin, Normal';font-variant-ligatures:normal;font-variant-caps:normal;font-variant-numeric:normal;font-feature-settings:normal;text-align:start;letter-spacing:0px;word-spacing:0px;writing-mode:lr-tb;text-anchor:start;fill:#2f7bd9;fill-opacity:1;stroke:none;stroke-width:0.26458332"
           id="g69" />
      </g>
      <g
         style="fill:#2f7bd9;fill-opacity:1"
         inkscape:label="Calque 1"
         id="g4599"
         transform="matrix(0.22313583,0.17439215,-0.16657016,0.23361409,126.90369,168.2986)">
        <g
           aria-label=")"
           style="font-style:normal;font-weight:normal;font-size:10.58333302px;line-height:1.25;font-family:sans-serif;letter-spacing:0px;word-spacing:0px;fill:#2f7bd9;fill-opacity:1;stroke:none;stroke-width:0.26458332"
           id="g4580"
           transform="translate(18.174328,8.0180859)">
          <text
             xml:space="preserve"
             style="font-style:normal;font-weight:normal;font-size:10.58333302px;line-height:1.25;font-family:sans-serif;letter-spacing:0px;word-spacing:0px;fill:#2f7bd9;fill-opacity:1;stroke:none;stroke-width:0.07000434"
             x="13.76466"
             y="209.79588"
             id="text4578"><tspan
               sodipodi:role="line"
               id="tspan4576"
               x="13.76466"
               y="219.15965"
               style="fill:#2f7bd9;fill-opacity:1;stroke-width:0.07000434" /></text>
        </g>
        <g
           aria-label=")"
           style="font-style:normal;font-variant:normal;font-weight:normal;font-stretch:normal;font-size:105.83333588px;line-height:1.25;font-family:Cabin;-inkscape-font-specification:'Cabin, Normal';font-variant-ligatures:normal;font-variant-caps:normal;font-variant-numeric:normal;font-feature-settings:normal;text-align:start;letter-spacing:0px;word-spacing:0px;writing-mode:lr-tb;text-anchor:start;fill:#2f7bd9;fill-opacity:1;stroke:none;stroke-width:0.26458332"
           id="g4595"
           transform="translate(-0.11103568,-7.73333)">
          <g
             style="fill:#2f7bd9;fill-opacity:1"
             transform="matrix(0.77162401,-0.54306755,0.54306755,0.77162401,-130.37432,96.156433)"
             id="g4586">
            <path
               d="m 39.492087,275.23244 c 3.757084,-4.66039 14.393334,-20.0224 14.393334,-38.23246 0,-18.21002 -10.63625,-33.57205 -14.393334,-38.23244 -3.757084,-4.66038 -12.012083,-4.833 -8.360833,0 3.65125,4.833 15.134167,21.74849 15.134167,38.23244 0,16.48398 -11.482917,33.39947 -15.134167,38.23246 -3.65125,4.83299 4.603749,4.66039 8.360833,0 z"
               style="font-style:normal;font-variant:normal;font-weight:normal;font-stretch:normal;font-size:105.83333588px;font-family:Cabin;-inkscape-font-specification:'Cabin, Normal';font-variant-ligatures:normal;font-variant-caps:normal;font-variant-numeric:normal;font-feature-settings:normal;text-align:start;writing-mode:lr-tb;text-anchor:start;fill:#2f7bd9;fill-opacity:1;stroke-width:0.23892711"
               id="path4582"
               inkscape:connector-curvature="0"
               sodipodi:nodetypes="zszzszz" />
            <path
               sodipodi:nodetypes="zszzszz"
               inkscape:connector-curvature="0"
               id="path4584"
               style="font-style:normal;font-variant:normal;font-weight:normal;font-stretch:normal;font-size:105.83333588px;font-family:Cabin;-inkscape-font-specification:'Cabin, Normal';font-variant-ligatures:normal;font-variant-caps:normal;font-variant-numeric:normal;font-feature-settings:normal;text-align:start;writing-mode:lr-tb;text-anchor:start;fill:#2f7bd9;fill-opacity:1;stroke-width:0.27507398"
               d="m 63.544348,283.96301 c 4.054107,-5.72461 15.531226,-24.59463 15.531226,-46.96302 0,-22.36838 -11.477119,-41.23841 -15.531226,-46.96302 -4.054107,-5.72461 -12.961719,-5.93664 -9.021813,0 3.939906,5.93664 16.330627,26.71485 16.330627,46.96302 0,20.24817 -12.390721,41.02639 -16.330627,46.96302 -3.939906,5.93662 4.967706,5.72461 9.021813,0 z" />
          </g>
          <g
             style="fill:#2f7bd9;fill-opacity:1"
             id="g4592"
             transform="matrix(0.77162401,-0.54306755,0.54306755,0.77162401,-130.37432,96.156433)">
            <path
               sodipodi:nodetypes="zszzszz"
               inkscape:connector-curvature="0"
               id="path4588"
               style="font-style:normal;font-variant:normal;font-weight:normal;font-stretch:normal;font-size:105.83333588px;font-family:Cabin;-inkscape-font-specification:'Cabin, Normal';font-variant-ligatures:normal;font-variant-caps:normal;font-variant-numeric:normal;font-feature-settings:normal;text-align:start;writing-mode:lr-tb;text-anchor:start;fill:#2f7bd9;fill-opacity:1;stroke-width:0.23892711"
               d="m 39.492087,275.23244 c 3.757084,-4.66039 14.393334,-20.0224 14.393334,-38.23246 0,-18.21002 -10.63625,-33.57205 -14.393334,-38.23244 -3.757084,-4.66038 -12.012083,-4.833 -8.360833,0 3.65125,4.833 15.134167,21.74849 15.134167,38.23244 0,16.48398 -11.482917,33.39947 -15.134167,38.23246 -3.65125,4.83299 4.603749,4.66039 8.360833,0 z" />
            <path
               d="m 63.544348,283.96301 c 4.054107,-5.72461 15.531226,-24.59463 15.531226,-46.96302 0,-22.36838 -11.477119,-41.23841 -15.531226,-46.96302 -4.054107,-5.72461 -12.961719,-5.93664 -9.021813,0 3.939906,5.93664 16.330627,26.71485 16.330627,46.96302 0,20.24817 -12.390721,41.02639 -16.330627,46.96302 -3.939906,5.93662 4.967706,5.72461 9.021813,0 z"
               style="font-style:normal;font-variant:normal;font-weight:normal;font-stretch:normal;font-size:105.83333588px;font-family:Cabin;-inkscape-font-specification:'Cabin, Normal';font-variant-ligatures:normal;font-variant-caps:normal;font-variant-numeric:normal;font-feature-settings:normal;text-align:start;writing-mode:lr-tb;text-anchor:start;fill:#2f7bd9;fill-opacity:1;stroke-width:0.27507398"
               id="path4590"
               inkscape:connector-curvature="0"
               sodipodi:nodetypes="zszzszz" />
          </g>
        </g>
        <g
           id="g4597"
           style="font-style:normal;font-variant:normal;font-weight:normal;font-stretch:normal;font-size:105.83333588px;line-height:1.25;font-family:Cabin;-inkscape-font-specification:'Cabin, Normal';font-variant-ligatures:normal;font-variant-caps:normal;font-variant-numeric:normal;font-feature-settings:normal;text-align:start;letter-spacing:0px;word-spacing:0px;writing-mode:lr-tb;text-anchor:start;fill:#2f7bd9;fill-opacity:1;stroke:none;stroke-width:0.26458332"
           aria-label=")" />
      </g>
    </g>
  </g>
</svg>
