<?xml version="1.0" encoding="UTF-8" standalone="no"?>
<!-- Created with Inkscape (http://www.inkscape.org/) -->

<svg
   xmlns:dc="http://purl.org/dc/elements/1.1/"
   xmlns:cc="http://creativecommons.org/ns#"
   xmlns:rdf="http://www.w3.org/1999/02/22-rdf-syntax-ns#"
   xmlns:svg="http://www.w3.org/2000/svg"
   xmlns="http://www.w3.org/2000/svg"
   xmlns:sodipodi="http://sodipodi.sourceforge.net/DTD/sodipodi-0.dtd"
   xmlns:inkscape="http://www.inkscape.org/namespaces/inkscape"
   width="512"
   height="512"
   viewBox="0 0 135.46666 135.46667"
   version="1.1"
   id="svg8"
   inkscape:version="0.92.1 r15371"
   sodipodi:docname="airsonic_light_512x512.svg">
  <defs
     id="defs2" />
  <sodipodi:namedview
     id="base"
     pagecolor="#ffffff"
     bordercolor="#666666"
     borderopacity="1.0"
     inkscape:pageopacity="0.0"
     inkscape:pageshadow="2"
     inkscape:zoom="0.99804688"
     inkscape:cx="278.04305"
     inkscape:cy="256"
     inkscape:document-units="mm"
     inkscape:current-layer="g4594"
     showgrid="false"
     units="px"
     inkscape:snap-smooth-nodes="false"
     inkscape:snap-intersection-paths="false"
     inkscape:window-width="1366"
     inkscape:window-height="704"
     inkscape:window-x="0"
     inkscape:window-y="27"
     inkscape:window-maximized="1" />
  <metadata
     id="metadata5">
    <rdf:RDF>
      <cc:Work
         rdf:about="">
        <dc:format>image/svg+xml</dc:format>
        <dc:type
           rdf:resource="http://purl.org/dc/dcmitype/StillImage" />
        <dc:title></dc:title>
      </cc:Work>
    </rdf:RDF>
  </metadata>
  <g
     inkscape:label="Calque 1"
     inkscape:groupmode="layer"
     id="layer1"
     transform="translate(0,-161.53332)">
    <g
       id="g102"
       transform="translate(6.4177963)"
       style="fill:#2f7bd9;fill-opacity:1">
      <g
         style="fill:#2f7bd9;fill-opacity:1"
         transform="matrix(1.2894452,0,0,1.2894452,-11.065867,-62.586117)"
         id="g4522">
        <g
           id="g4594"
           transform="translate(0.3083934,-0.72968956)">
          <g
             id="g4630"
             transform="matrix(1.1199958,0,0,1.1199958,-6.7056602,-27.368306)"
             style="fill:#f1f1f1;fill-opacity:1">
            <g
               id="g4492"
               transform="translate(-2.3582099,1.8503363)"
               style="fill:#f1f1f1;fill-opacity:1;stroke:none">
              <path
                 style="opacity:1;fill:#f1f1f1;fill-opacity:1;stroke:none;stroke-width:5.29166651;stroke-miterlimit:4;stroke-dasharray:none;stroke-opacity:1"
                 d="M 50.104111,229.26665 A 13.122505,13.122505 0 0 1 36.981606,242.38915 13.122505,13.122505 0 0 1 23.8591,229.26665 13.122505,13.122505 0 0 1 36.981606,216.14414 13.122505,13.122505 0 0 1 50.104111,229.26665 Z"
                 id="path4485"
                 inkscape:connector-curvature="0" />
              <path
                 style="opacity:1;fill:#f1f1f1;fill-opacity:1;stroke:none;stroke-width:5.29166651;stroke-miterlimit:4;stroke-dasharray:none;stroke-opacity:1"
                 d="m 92.520287,229.26665 a 13.122505,13.122505 0 0 1 -13.122506,13.1225 13.122505,13.122505 0 0 1 -13.122505,-13.1225 13.122505,13.122505 0 0 1 13.122505,-13.12251 13.122505,13.122505 0 0 1 13.122506,13.12251 z"
                 id="circle4491"
                 inkscape:connector-curvature="0" />
              <path
                 style="opacity:1;fill:#f1f1f1;fill-opacity:1;stroke:none;stroke-width:5.29166651;stroke-miterlimit:4;stroke-dasharray:none;stroke-opacity:1"
                 d="M 76.084015,224.4841 A 17.894325,17.894325 0 0 1 58.18969,242.37843 17.894325,17.894325 0 0 1 40.295364,224.4841 17.894325,17.894325 0 0 1 58.18969,206.58978 17.894325,17.894325 0 0 1 76.084015,224.4841 Z"
                 id="circle4496"
                 inkscape:connector-curvature="0" />
              <path
                 style="opacity:1;fill:#f1f1f1;fill-opacity:1;stroke:none;stroke-width:5.29166651;stroke-miterlimit:4;stroke-dasharray:none;stroke-opacity:1"
                 d="m 36.538471,230.01532 h 42.85931 v 12.37383 h -42.85931 z"
                 id="rect4516"
                 inkscape:connector-curvature="0" />
            </g>
            <g
               transform="matrix(-0.22313583,0.17439215,0.16657016,0.23361409,-15.240728,168.2986)"
               id="g71"
               inkscape:label="Calque 1"
               style="fill:#f1f1f1;fill-opacity:1">
              <g
                 transform="translate(18.174328,8.0180859)"
                 id="g53"
                 style="font-style:normal;font-weight:normal;font-size:10.58333302px;line-height:1.25;font-family:sans-serif;letter-spacing:0px;word-spacing:0px;fill:#f1f1f1;fill-opacity:1;stroke:none;stroke-width:0.26458332"
                 aria-label=")">
                <text
                   id="text51"
                   y="209.79588"
                   x="13.76466"
                   style="font-style:normal;font-weight:normal;font-size:10.58333302px;line-height:1.25;font-family:sans-serif;letter-spacing:0px;word-spacing:0px;fill:#f1f1f1;fill-opacity:1;stroke:none;stroke-width:0.07000434"
                   xml:space="preserve"><tspan
                     style="fill:#f1f1f1;fill-opacity:1;stroke-width:0.07000434"
                     y="219.15965"
                     x="13.76466"
                     id="tspan49"
                     sodipodi:role="line" /></text>
              </g>
              <g
                 transform="translate(-0.11103568,-7.73333)"
                 id="g67"
                 style="font-style:normal;font-variant:normal;font-weight:normal;font-stretch:normal;font-size:105.83333588px;line-height:1.25;font-family:Cabin;-inkscape-font-specification:'Cabin, Normal';font-variant-ligatures:normal;font-variant-caps:normal;font-variant-numeric:normal;font-feature-settings:normal;text-align:start;letter-spacing:0px;word-spacing:0px;writing-mode:lr-tb;text-anchor:start;fill:#f1f1f1;fill-opacity:1;stroke:none;stroke-width:0.26458332"
                 aria-label=")">
                <g
                   id="g59"
                   transform="matrix(0.77162401,-0.54306755,0.54306755,0.77162401,-130.37432,96.156433)"
                   style="fill:#f1f1f1;fill-opacity:1">
                  <path
                     sodipodi:nodetypes="zszzszz"
                     inkscape:connector-curvature="0"
                     id="path55"
                     style="font-style:normal;font-variant:normal;font-weight:normal;font-stretch:normal;font-size:105.83333588px;font-family:Cabin;-inkscape-font-specification:'Cabin, Normal';font-variant-ligatures:normal;font-variant-caps:normal;font-variant-numeric:normal;font-feature-settings:normal;text-align:start;writing-mode:lr-tb;text-anchor:start;fill:#f1f1f1;fill-opacity:1;stroke-width:0.23892711"
                     d="m 39.492087,275.23244 c 3.757084,-4.66039 14.393334,-20.0224 14.393334,-38.23246 0,-18.21002 -10.63625,-33.57205 -14.393334,-38.23244 -3.757084,-4.66038 -12.012083,-4.833 -8.360833,0 3.65125,4.833 15.134167,21.74849 15.134167,38.23244 0,16.48398 -11.482917,33.39947 -15.134167,38.23246 -3.65125,4.83299 4.603749,4.66039 8.360833,0 z" />
                  <path
                     d="m 63.544348,283.96301 c 4.054107,-5.72461 15.531226,-24.59463 15.531226,-46.96302 0,-22.36838 -11.477119,-41.23841 -15.531226,-46.96302 -4.054107,-5.72461 -12.961719,-5.93664 -9.021813,0 3.939906,5.93664 16.330627,26.71485 16.330627,46.96302 0,20.24817 -12.390721,41.02639 -16.330627,46.96302 -3.939906,5.93662 4.967706,5.72461 9.021813,0 z"
                     style="font-style:normal;font-variant:normal;font-weight:normal;font-stretch:normal;font-size:105.83333588px;font-family:Cabin;-inkscape-font-specification:'Cabin, Normal';font-variant-ligatures:normal;font-variant-caps:normal;font-variant-numeric:normal;font-feature-settings:normal;text-align:start;writing-mode:lr-tb;text-anchor:start;fill:#f1f1f1;fill-opacity:1;stroke-width:0.27507398"
                     id="path57"
                     inkscape:connector-curvature="0"
                     sodipodi:nodetypes="zszzszz" />
                </g>
                <g
                   transform="matrix(0.77162401,-0.54306755,0.54306755,0.77162401,-130.37432,96.156433)"
                   id="g65"
                   style="fill:#f1f1f1;fill-opacity:1">
                  <path
                     d="m 39.492087,275.23244 c 3.757084,-4.66039 14.393334,-20.0224 14.393334,-38.23246 0,-18.21002 -10.63625,-33.57205 -14.393334,-38.23244 -3.757084,-4.66038 -12.012083,-4.833 -8.360833,0 3.65125,4.833 15.134167,21.74849 15.134167,38.23244 0,16.48398 -11.482917,33.39947 -15.134167,38.23246 -3.65125,4.83299 4.603749,4.66039 8.360833,0 z"
                     style="font-style:normal;font-variant:normal;font-weight:normal;font-stretch:normal;font-size:105.83333588px;font-family:Cabin;-inkscape-font-specification:'Cabin, Normal';font-variant-ligatures:normal;font-variant-caps:normal;font-variant-numeric:normal;font-feature-settings:normal;text-align:start;writing-mode:lr-tb;text-anchor:start;fill:#f1f1f1;fill-opacity:1;stroke-width:0.23892711"
                     id="path61"
                     inkscape:connector-curvature="0"
                     sodipodi:nodetypes="zszzszz" />
                  <path
                     sodipodi:nodetypes="zszzszz"
                     inkscape:connector-curvature="0"
                     id="path63"
                     style="font-style:normal;font-variant:normal;font-weight:normal;font-stretch:normal;font-size:105.83333588px;font-family:Cabin;-inkscape-font-specification:'Cabin, Normal';font-variant-ligatures:normal;font-variant-caps:normal;font-variant-numeric:normal;font-feature-settings:normal;text-align:start;writing-mode:lr-tb;text-anchor:start;fill:#f1f1f1;fill-opacity:1;stroke-width:0.27507398"
                     d="m 63.544348,283.96301 c 4.054107,-5.72461 15.531226,-24.59463 15.531226,-46.96302 0,-22.36838 -11.477119,-41.23841 -15.531226,-46.96302 -4.054107,-5.72461 -12.961719,-5.93664 -9.021813,0 3.939906,5.93664 16.330627,26.71485 16.330627,46.96302 0,20.24817 -12.390721,41.02639 -16.330627,46.96302 -3.939906,5.93662 4.967706,5.72461 9.021813,0 z" />
                </g>
              </g>
              <g
                 aria-label=")"
                 style="font-style:normal;font-variant:normal;font-weight:normal;font-stretch:normal;font-size:105.83333588px;line-height:1.25;font-family:Cabin;-inkscape-font-specification:'Cabin, Normal';font-variant-ligatures:normal;font-variant-caps:normal;font-variant-numeric:normal;font-feature-settings:normal;text-align:start;letter-spacing:0px;word-spacing:0px;writing-mode:lr-tb;text-anchor:start;fill:#f1f1f1;fill-opacity:1;stroke:none;stroke-width:0.26458332"
                 id="g69" />
            </g>
            <g
               style="fill:#f1f1f1;fill-opacity:1"
               inkscape:label="Calque 1"
               id="g4599"
               transform="matrix(0.22313583,0.17439215,-0.16657016,0.23361409,126.90369,168.2986)">
              <g
                 aria-label=")"
                 style="font-style:normal;font-weight:normal;font-size:10.58333302px;line-height:1.25;font-family:sans-serif;letter-spacing:0px;word-spacing:0px;fill:#f1f1f1;fill-opacity:1;stroke:none;stroke-width:0.26458332"
                 id="g4580"
                 transform="translate(18.174328,8.0180859)">
                <text
                   xml:space="preserve"
                   style="font-style:normal;font-weight:normal;font-size:10.58333302px;line-height:1.25;font-family:sans-serif;letter-spacing:0px;word-spacing:0px;fill:#f1f1f1;fill-opacity:1;stroke:none;stroke-width:0.07000434"
                   x="13.76466"
                   y="209.79588"
                   id="text4578"><tspan
                     sodipodi:role="line"
                     id="tspan4576"
                     x="13.76466"
                     y="219.15965"
                     style="fill:#f1f1f1;fill-opacity:1;stroke-width:0.07000434" /></text>
              </g>
              <g
                 aria-label=")"
                 style="font-style:normal;font-variant:normal;font-weight:normal;font-stretch:normal;font-size:105.83333588px;line-height:1.25;font-family:Cabin;-inkscape-font-specification:'Cabin, Normal';font-variant-ligatures:normal;font-variant-caps:normal;font-variant-numeric:normal;font-feature-settings:normal;text-align:start;letter-spacing:0px;word-spacing:0px;writing-mode:lr-tb;text-anchor:start;fill:#f1f1f1;fill-opacity:1;stroke:none;stroke-width:0.26458332"
                 id="g4595"
                 transform="translate(-0.11103568,-7.73333)">
                <g
                   style="fill:#f1f1f1;fill-opacity:1"
                   transform="matrix(0.77162401,-0.54306755,0.54306755,0.77162401,-130.37432,96.156433)"
                   id="g4586">
                  <path
                     d="m 39.492087,275.23244 c 3.757084,-4.66039 14.393334,-20.0224 14.393334,-38.23246 0,-18.21002 -10.63625,-33.57205 -14.393334,-38.23244 -3.757084,-4.66038 -12.012083,-4.833 -8.360833,0 3.65125,4.833 15.134167,21.74849 15.134167,38.23244 0,16.48398 -11.482917,33.39947 -15.134167,38.23246 -3.65125,4.83299 4.603749,4.66039 8.360833,0 z"
                     style="font-style:normal;font-variant:normal;font-weight:normal;font-stretch:normal;font-size:105.83333588px;font-family:Cabin;-inkscape-font-specification:'Cabin, Normal';font-variant-ligatures:normal;font-variant-caps:normal;font-variant-numeric:normal;font-feature-settings:normal;text-align:start;writing-mode:lr-tb;text-anchor:start;fill:#f1f1f1;fill-opacity:1;stroke-width:0.23892711"
                     id="path4582"
                     inkscape:connector-curvature="0"
                     sodipodi:nodetypes="zszzszz" />
                  <path
                     sodipodi:nodetypes="zszzszz"
                     inkscape:connector-curvature="0"
                     id="path4584"
                     style="font-style:normal;font-variant:normal;font-weight:normal;font-stretch:normal;font-size:105.83333588px;font-family:Cabin;-inkscape-font-specification:'Cabin, Normal';font-variant-ligatures:normal;font-variant-caps:normal;font-variant-numeric:normal;font-feature-settings:normal;text-align:start;writing-mode:lr-tb;text-anchor:start;fill:#f1f1f1;fill-opacity:1;stroke-width:0.27507398"
                     d="m 63.544348,283.96301 c 4.054107,-5.72461 15.531226,-24.59463 15.531226,-46.96302 0,-22.36838 -11.477119,-41.23841 -15.531226,-46.96302 -4.054107,-5.72461 -12.961719,-5.93664 -9.021813,0 3.939906,5.93664 16.330627,26.71485 16.330627,46.96302 0,20.24817 -12.390721,41.02639 -16.330627,46.96302 -3.939906,5.93662 4.967706,5.72461 9.021813,0 z" />
                </g>
                <g
                   style="fill:#f1f1f1;fill-opacity:1"
                   id="g4592"
                   transform="matrix(0.77162401,-0.54306755,0.54306755,0.77162401,-130.37432,96.156433)">
                  <path
                     sodipodi:nodetypes="zszzszz"
                     inkscape:connector-curvature="0"
                     id="path4588"
                     style="font-style:normal;font-variant:normal;font-weight:normal;font-stretch:normal;font-size:105.83333588px;font-family:Cabin;-inkscape-font-specification:'Cabin, Normal';font-variant-ligatures:normal;font-variant-caps:normal;font-variant-numeric:normal;font-feature-settings:normal;text-align:start;writing-mode:lr-tb;text-anchor:start;fill:#f1f1f1;fill-opacity:1;stroke-width:0.23892711"
                     d="m 39.492087,275.23244 c 3.757084,-4.66039 14.393334,-20.0224 14.393334,-38.23246 0,-18.21002 -10.63625,-33.57205 -14.393334,-38.23244 -3.757084,-4.66038 -12.012083,-4.833 -8.360833,0 3.65125,4.833 15.134167,21.74849 15.134167,38.23244 0,16.48398 -11.482917,33.39947 -15.134167,38.23246 -3.65125,4.83299 4.603749,4.66039 8.360833,0 z" />
                  <path
                     d="m 63.544348,283.96301 c 4.054107,-5.72461 15.531226,-24.59463 15.531226,-46.96302 0,-22.36838 -11.477119,-41.23841 -15.531226,-46.96302 -4.054107,-5.72461 -12.961719,-5.93664 -9.021813,0 3.939906,5.93664 16.330627,26.71485 16.330627,46.96302 0,20.24817 -12.390721,41.02639 -16.330627,46.96302 -3.939906,5.93662 4.967706,5.72461 9.021813,0 z"
                     style="font-style:normal;font-variant:normal;font-weight:normal;font-stretch:normal;font-size:105.83333588px;font-family:Cabin;-inkscape-font-specification:'Cabin, Normal';font-variant-ligatures:normal;font-variant-caps:normal;font-variant-numeric:normal;font-feature-settings:normal;text-align:start;writing-mode:lr-tb;text-anchor:start;fill:#f1f1f1;fill-opacity:1;stroke-width:0.27507398"
                     id="path4590"
                     inkscape:connector-curvature="0"
                     sodipodi:nodetypes="zszzszz" />
                </g>
              </g>
              <g
                 id="g4597"
                 style="font-style:normal;font-variant:normal;font-weight:normal;font-stretch:normal;font-size:105.83333588px;line-height:1.25;font-family:Cabin;-inkscape-font-specification:'Cabin, Normal';font-variant-ligatures:normal;font-variant-caps:normal;font-variant-numeric:normal;font-feature-settings:normal;text-align:start;letter-spacing:0px;word-spacing:0px;writing-mode:lr-tb;text-anchor:start;fill:#f1f1f1;fill-opacity:1;stroke:none;stroke-width:0.26458332"
                 aria-label=")" />
            </g>
          </g>
        </g>
      </g>
    </g>
  </g>
</svg>
